<?xml version="1.0" standalone="no"?>
<!DOCTYPE svg PUBLIC "-//W3C//DTD SVG 20010904//EN"
 "http://www.w3.org/TR/2001/REC-SVG-20010904/DTD/svg10.dtd">
<svg version="1.0" xmlns="http://www.w3.org/2000/svg"
 width="300.000000pt" height="300.000000pt" viewBox="0 0 300.000000 300.000000"
 preserveAspectRatio="xMidYMid meet">
<metadata>
Created by potrace 1.14, written by Peter Selinger 2001-2017
</metadata>
<g transform="translate(0.000000,300.000000) scale(0.100000,-0.100000)"
fill="#000000" stroke="none">
<path d="M1240 2219 c-72 -12 -184 -45 -240 -71 -99 -44 -116 -53 -128 -65 -7
-7 -18 -13 -23 -13 -20 0 -148 -103 -219 -175 -56 -57 -157 -194 -152 -207 1
-5 -3 -8 -8 -8 -6 0 -10 -6 -10 -14 0 -8 -7 -22 -16 -30 -8 -9 -12 -16 -8 -16
4 0 0 -8 -9 -18 -9 -9 -18 -28 -21 -42 -2 -14 -14 -52 -26 -85 -12 -33 -23
-69 -26 -80 -2 -11 -6 -33 -10 -48 -12 -54 -14 -83 -15 -208 0 -84 4 -133 12
-146 18 -30 -15 -77 -50 -70 -38 8 -82 -3 -89 -22 -8 -21 -33 -40 -52 -41 -16
0 -40 -50 -36 -72 15 -83 51 -131 108 -144 18 -4 35 -7 38 -7 91 15 85 16 110
-20 47 -68 134 -74 199 -14 22 20 46 34 53 32 8 -3 22 -21 32 -40 11 -19 21
-33 24 -30 3 2 14 -2 26 -10 11 -8 34 -15 50 -15 33 0 92 33 106 61 14 25 58
25 84 0 26 -24 78 -30 99 -13 9 8 24 12 34 11 10 -2 34 0 54 4 33 7 41 4 68
-24 27 -26 37 -30 64 -25 18 4 37 7 44 8 7 1 10 5 8 9 -8 12 21 29 48 27 19
-2 31 -12 41 -33 8 -16 18 -29 21 -27 3 1 18 -4 33 -11 51 -26 119 -2 147 53
19 38 41 38 74 1 24 -26 73 -47 111 -46 33 1 77 27 94 57 18 29 20 30 72 24
32 -4 64 -1 81 6 15 6 31 11 36 10 4 -1 7 3 7 8 0 6 11 10 25 10 14 0 25 -4
25 -8 0 -12 74 -52 95 -52 34 0 83 32 101 66 10 18 25 34 32 34 7 0 30 -16 51
-37 26 -25 49 -37 74 -40 48 -5 114 25 129 58 11 25 15 27 66 22 146 -12 234
114 151 218 -38 49 -81 69 -144 69 -33 0 -45 4 -45 15 0 8 -6 15 -14 15 -8 0
-16 10 -18 22 -2 13 -17 32 -35 43 -26 16 -33 29 -38 65 -11 82 -16 97 -35
118 -22 24 -25 39 -9 44 11 4 -19 153 -41 203 -65 150 -126 256 -183 318 -14
15 -24 27 -22 27 12 0 -150 151 -191 177 -10 7 -35 23 -54 35 -47 31 -196 103
-241 117 -148 46 -378 64 -519 40z m312 -782 c62 -30 120 -86 147 -142 23 -47
14 -57 -41 -48 -25 4 -38 2 -38 -6 0 -6 -13 -11 -28 -11 -21 0 -43 -14 -81
-50 -33 -31 -61 -50 -76 -50 -39 0 -55 -11 -55 -36 0 -20 -5 -24 -28 -24 -23
0 -30 6 -40 33 -15 43 -49 58 -127 58 -83 0 -89 5 -75 60 23 86 61 140 132
193 84 62 211 71 310 23z"/>
</g>
</svg>
